<?xml version="1.0" standalone="no"?>
<!DOCTYPE svg PUBLIC "-//W3C//DTD SVG 20010904//EN"
 "http://www.w3.org/TR/2001/REC-SVG-20010904/DTD/svg10.dtd">
<svg version="1.0" xmlns="http://www.w3.org/2000/svg"
 width="926.000000pt" height="824.000000pt" viewBox="0 0 926.000000 824.000000"
 preserveAspectRatio="xMidYMid meet">

<g transform="translate(0.000000,824.000000) scale(0.100000,-0.100000)"
fill="#000000" stroke="none">
<path d="M0 4120 l0 -4120 4630 0 4630 0 0 4120 0 4120 -4630 0 -4630 0 0
-4120z m5040 3955 c290 -34 588 -100 835 -186 214 -73 235 -83 228 -108 -5
-21 -43 -30 -43 -11 0 6 -4 10 -10 10 -5 0 -10 -13 -10 -28 0 -16 -7 -37 -15
-48 -15 -18 -15 -18 -26 0 -9 15 -13 16 -20 5 -14 -23 -11 -69 5 -69 8 0 17 6
19 13 3 6 6 2 6 -10 1 -17 -5 -23 -19 -23 -24 0 -26 -17 -4 -41 22 -25 11 -53
-19 -46 -12 2 -30 8 -39 12 -14 5 -18 2 -18 -13 0 -12 5 -24 10 -27 6 -3 10
-16 10 -29 0 -13 9 -31 20 -41 11 -10 20 -24 20 -32 0 -19 -24 -16 -45 7 -23
26 -30 18 -44 -46 -12 -58 -3 -100 28 -140 12 -15 21 -33 21 -42 0 -8 15 -29
33 -46 32 -30 65 -81 117 -179 38 -72 111 -167 140 -182 32 -17 174 -158 222
-221 58 -75 122 -260 99 -288 -11 -13 -5 -37 28 -105 12 -24 27 -23 39 4 13
28 49 34 58 10 6 -15 34 -21 34 -7 0 4 -9 21 -20 37 -25 38 -25 48 0 40 16 -5
20 -2 20 19 0 35 13 39 56 16 l37 -21 -30 38 c-21 26 -32 55 -37 90 -6 47 -4
53 22 80 45 45 80 96 87 125 4 16 30 52 59 82 65 68 96 110 96 129 0 18 18 32
28 23 3 -4 1 -15 -5 -25 -13 -20 0 -41 24 -41 11 0 12 18 7 83 -3 45 -7 87 -9
93 -2 7 7 21 20 33 30 25 42 66 25 86 -15 19 -1 64 34 106 l25 29 104 -89
c367 -317 704 -756 935 -1217 209 -418 337 -852 398 -1354 25 -202 25 -655 0
-865 -110 -941 -519 -1779 -1182 -2425 -647 -630 -1448 -1009 -2359 -1116
-211 -25 -663 -25 -865 -1 -656 81 -1213 280 -1749 624 -94 61 -284 201 -345
254 l-38 34 10 80 c6 44 18 112 26 152 9 40 21 112 26 160 6 48 14 111 20 138
30 163 -9 141 -45 -25 -13 -63 -30 -137 -38 -165 -24 -84 -56 -228 -59 -260
-3 -29 -3 -29 -97 55 -306 275 -627 699 -836 1103 -575 1113 -591 2431 -44
3565 293 608 745 1145 1275 1515 83 58 107 70 83 41 -10 -13 -10 -17 2 -25 8
-5 20 -9 26 -9 18 0 40 -39 49 -84 6 -35 5 -38 -13 -32 -29 9 -46 -15 -38 -57
6 -30 4 -36 -14 -42 -30 -9 -26 -22 12 -45 48 -28 57 -38 57 -64 0 -13 14 -40
30 -61 20 -25 27 -42 21 -49 -6 -7 -8 -34 -6 -61 3 -42 9 -55 38 -80 46 -41
60 -69 51 -107 -5 -27 -2 -35 25 -57 19 -16 38 -47 50 -81 11 -31 26 -56 35
-58 15 -3 21 -24 18 -63 -1 -9 14 -31 33 -49 19 -19 35 -39 35 -45 0 -7 8 -20
19 -29 10 -9 22 -31 25 -49 4 -17 20 -48 36 -69 32 -39 35 -57 21 -104 -5 -16
-14 -56 -21 -89 -7 -33 -23 -100 -36 -149 -26 -94 -44 -198 -44 -256 l0 -35
30 47 c16 26 48 60 71 75 23 16 52 35 66 44 38 26 75 62 134 132 18 22 43 43
57 48 16 6 22 14 18 27 -6 20 -7 91 -2 142 1 19 4 56 4 83 2 32 8 53 22 67 11
11 22 30 26 44 7 29 133 152 169 166 15 6 43 10 63 10 20 0 47 3 60 6 20 6 22
11 16 53 -5 43 -3 50 35 100 23 30 41 60 41 66 0 7 10 24 23 38 12 14 36 45
53 69 l32 43 7 226 c6 221 6 226 -16 272 -13 26 -29 47 -37 47 -7 0 -19 13
-25 30 -6 17 -20 30 -32 32 -13 2 -19 9 -18 23 2 11 0 38 -3 59 -6 35 -8 38
-19 23 -7 -9 -20 -17 -29 -17 -13 0 -16 12 -16 73 0 91 -7 116 -35 127 -15 6
-25 20 -29 44 -4 20 -12 36 -19 36 -15 0 -34 30 -52 81 l-14 38 78 25 c256 81
621 147 931 170 118 8 551 -4 680 -19z"/>
<path d="M3580 7590 c0 -5 5 -10 10 -10 6 0 10 5 10 10 0 6 -4 10 -10 10 -5 0
-10 -4 -10 -10z"/>
<path d="M3586 7481 c-4 -7 -5 -15 -2 -18 9 -9 19 4 14 18 -4 11 -6 11 -12 0z"/>
<path d="M2868 4223 c7 -3 16 -2 19 1 4 3 -2 6 -13 5 -11 0 -14 -3 -6 -6z"/>
<path d="M2863 4170 c-30 -12 -29 -26 0 -32 31 -6 70 9 65 24 -6 16 -36 20
-65 8z"/>
<path d="M2985 4163 c12 -32 10 -37 -13 -41 -12 -2 -28 -12 -35 -23 -6 -10
-17 -19 -24 -19 -7 0 -13 -7 -13 -15 0 -18 31 -20 47 -4 7 7 19 8 30 4 10 -4
23 -9 29 -10 13 -3 54 -41 54 -50 0 -12 -28 -4 -33 9 -8 19 -44 9 -62 -17 -12
-17 -12 -23 2 -44 16 -24 15 -26 -12 -47 -40 -32 -15 -43 34 -14 22 12 43 19
47 16 9 -10 -15 -38 -33 -38 -22 0 -12 -44 11 -49 11 -2 38 -15 60 -29 40 -25
40 -25 16 -34 -16 -6 -26 -5 -28 1 -4 13 -42 15 -42 3 0 -4 5 -13 12 -20 8 -8
5 -14 -15 -21 -15 -6 -27 -17 -27 -26 0 -8 -4 -15 -10 -15 -5 0 -10 -5 -10
-11 0 -7 11 -9 31 -5 20 4 39 0 55 -10 23 -16 24 -18 8 -35 -11 -12 -31 -19
-56 -19 -21 0 -38 -4 -38 -10 0 -5 22 -10 49 -10 28 0 53 5 56 10 8 12 75 13
75 1 0 -11 -25 -21 -50 -21 -9 0 -23 -7 -30 -15 -11 -13 -8 -15 14 -15 14 0
26 -4 26 -10 0 -5 -8 -10 -19 -10 -18 0 -58 -47 -48 -57 3 -2 17 3 31 12 14 9
31 15 38 13 8 -3 -3 -15 -24 -29 -43 -28 -65 -66 -48 -83 7 -7 16 -7 30 2 24
15 40 15 40 2 0 -6 -11 -15 -25 -20 -14 -5 -25 -16 -25 -23 0 -8 -10 -19 -22
-25 -23 -11 -23 -11 3 -11 21 -1 32 -10 48 -41 12 -22 21 -49 21 -58 0 -10 5
-23 12 -30 17 -17 -1 -32 -49 -43 -21 -4 -76 -22 -123 -38 -128 -44 -205 -88
-241 -134 -24 -32 -18 -42 31 -53 53 -11 90 -34 90 -54 0 -11 7 -20 15 -20 8
0 29 -13 48 -29 18 -16 42 -29 52 -28 12 1 20 -4 20 -13 0 -10 -10 -15 -28
-15 -56 -1 -56 -52 -1 -85 l35 -20 -23 -40 -23 -40 23 -16 c17 -12 22 -23 18
-38 -3 -12 1 -32 10 -44 9 -13 13 -31 9 -43 -4 -12 -2 -31 3 -43 6 -11 13 -33
16 -48 4 -18 13 -28 24 -28 10 0 37 -14 60 -31 l42 -30 -15 -36 c-14 -33 -14
-38 2 -56 10 -10 17 -27 15 -37 -2 -11 6 -23 17 -30 12 -6 21 -16 21 -22 0
-12 89 -97 103 -98 4 0 7 -11 7 -24 0 -13 7 -27 16 -30 10 -4 13 -13 9 -25 -3
-11 0 -24 7 -30 7 -6 27 -22 45 -36 21 -17 29 -31 26 -44 -6 -22 33 -52 89
-70 32 -11 36 -15 26 -30 -22 -36 -4 -51 63 -51 57 0 64 -2 93 -34 17 -18 42
-37 56 -41 41 -13 70 -36 70 -56 0 -12 7 -19 19 -19 19 0 45 23 35 32 -10 11
131 46 164 41 35 -6 46 -38 15 -46 -10 -3 -4 -5 14 -6 22 -1 35 5 43 18 14 28
13 31 -12 31 l-23 0 25 25 25 25 60 -17 c40 -11 77 -30 110 -58 64 -54 167
-107 225 -115 25 -4 79 -13 120 -20 92 -15 294 -7 371 16 81 24 165 79 185
123 9 20 19 40 22 45 10 17 -83 -4 -98 -23 -15 -17 -42 -26 -120 -37 -33 -5
-63 -15 -102 -35 -9 -4 -40 -6 -70 -3 -29 2 -79 5 -110 5 -43 -1 -60 4 -66 16
-6 10 -16 14 -26 10 -21 -8 -216 41 -237 59 -8 8 -20 14 -25 14 -12 0 -79 35
-124 65 -20 13 -65 28 -105 35 -80 13 -59 -4 -276 220 -83 85 -148 162 -158
185 -10 22 -21 78 -25 125 -7 84 -24 160 -45 199 -8 15 -7 23 4 35 22 21 19
53 -6 59 -51 13 18 39 116 42 28 1 64 9 80 17 29 15 29 15 6 27 -28 15 -18 31
19 31 19 0 33 7 40 19 8 16 17 18 52 14 24 -3 52 -10 62 -16 15 -7 22 -6 31 7
7 9 23 16 36 16 13 1 35 7 49 15 14 7 37 11 51 8 31 -6 59 21 41 39 -20 20
-13 36 19 43 18 4 34 16 39 30 5 12 16 25 25 29 13 5 15 9 6 20 -14 17 -4 26
29 26 15 0 33 7 40 16 11 13 10 16 -9 21 -16 4 -20 10 -15 22 9 20 8 37 -1 81
-6 29 -5 33 6 23 20 -19 31 -16 27 10 -2 17 -9 21 -27 19 -32 -3 -51 15 -51
49 0 16 -4 29 -10 29 -5 0 -10 -9 -10 -20 0 -11 -5 -20 -11 -20 -7 0 -9 15 -5
43 3 23 3 34 0 25 -6 -20 -24 -24 -24 -6 0 9 -3 9 -12 0 -18 -18 -28 -14 -28
11 0 35 -14 49 -42 42 -22 -6 -28 -2 -40 22 -9 19 -21 27 -35 26 -11 -1 -38
13 -62 33 -28 24 -47 33 -60 29 -12 -3 -21 0 -25 10 -3 8 -16 15 -28 15 -38
-1 -168 72 -174 98 -6 23 -34 31 -34 10 0 -6 -13 0 -28 15 -15 15 -32 27 -36
27 -19 0 -145 119 -170 160 -14 25 -32 54 -39 65 -14 22 -69 97 -77 105 -3 3
-11 18 -18 34 -7 17 -25 46 -40 65 -15 20 -31 44 -37 54 -10 19 -39 37 -92 59
-31 12 -58 51 -48 68 3 5 -7 11 -23 14 -18 4 -32 17 -41 36 -13 32 -38 43 -26
13z m20 -193 c-3 -5 -10 -10 -16 -10 -5 0 -9 5 -9 10 0 6 7 10 16 10 8 0 12
-4 9 -10z m92 -136 c-3 -3 -12 -4 -19 -1 -8 3 -5 6 6 6 11 1 17 -2 13 -5z
m-12 -134 c-3 -5 -11 -10 -16 -10 -6 0 -7 5 -4 10 3 6 11 10 16 10 6 0 7 -4 4
-10z m45 -50 c0 -5 -7 -10 -16 -10 -8 0 -12 5 -9 10 3 6 10 10 16 10 5 0 9 -4
9 -10z"/>
<path d="M3140 4065 c0 -16 27 -32 37 -21 7 7 -16 36 -28 36 -5 0 -9 -7 -9
-15z"/>
<path d="M6286 3574 c-22 -8 -48 -12 -57 -9 -10 4 -32 -1 -48 -9 -37 -20 -41
-20 -41 0 0 11 -5 14 -17 9 -10 -4 -31 -12 -48 -17 -16 -6 -43 -14 -60 -20
-16 -6 -55 -16 -85 -23 -66 -16 -213 -87 -257 -125 -17 -16 -48 -33 -69 -40
-20 -7 -50 -27 -66 -46 -16 -18 -39 -36 -51 -39 -46 -13 -107 -40 -107 -47 0
-5 -6 -8 -14 -8 -7 0 -21 -12 -31 -26 -14 -21 -22 -25 -46 -20 -25 5 -29 2
-34 -22 -9 -39 -20 -57 -36 -57 -9 0 -15 -15 -17 -44 -2 -25 -10 -50 -17 -55
-8 -6 -17 -23 -20 -38 -6 -23 1 -35 45 -82 34 -36 47 -56 38 -59 -16 -7 35
-57 58 -57 8 0 33 -10 55 -22 32 -18 39 -28 36 -45 -3 -14 1 -23 9 -23 7 0 26
-12 43 -26 17 -14 46 -27 63 -29 48 -4 88 -16 88 -26 0 -5 -8 -9 -17 -9 -12 0
-14 -3 -6 -11 8 -8 25 -8 62 0 28 6 57 8 65 5 9 -3 30 1 47 10 18 9 37 16 42
16 6 0 30 9 53 21 36 17 46 18 63 7 16 -10 23 -10 33 0 9 9 6 12 -18 12 l-29
1 24 19 c13 11 31 20 41 20 11 0 31 14 47 31 15 16 35 36 43 44 105 100 176
191 225 291 25 50 45 97 45 105 0 8 6 25 13 39 8 16 14 64 15 119 1 51 6 99
11 105 15 19 23 76 13 89 -6 7 -12 33 -14 57 -3 51 -13 56 -72 34z"/>
<path d="M2996 3515 c-22 -17 -17 -29 8 -19 9 3 16 12 16 20 0 17 0 17 -24 -1z"/>
<path d="M4360 3135 c0 -18 1 -18 36 0 l29 15 -32 0 c-23 0 -33 -5 -33 -15z"/>
<path d="M4290 3132 c0 -5 7 -17 15 -28 14 -18 14 -18 15 9 0 17 -5 27 -15 27
-8 0 -15 -4 -15 -8z"/>
<path d="M5180 2830 c0 -5 5 -10 10 -10 6 0 10 5 10 10 0 6 -4 10 -10 10 -5 0
-10 -4 -10 -10z"/>
<path d="M4327 2793 c-9 -8 -9 -43 -1 -43 8 0 33 32 34 43 0 9 -24 9 -33 0z"/>
<path d="M2122 1710 c0 -14 2 -19 5 -12 2 6 2 18 0 25 -3 6 -5 1 -5 -13z"/>
<path d="M4120 1529 c0 -5 5 -7 10 -4 6 3 10 8 10 11 0 2 -4 4 -10 4 -5 0 -10
-5 -10 -11z"/>
</g>
</svg>
